<svg id="icon_拷贝" data-name="icon 拷贝" xmlns="http://www.w3.org/2000/svg" width="77.2" height="77.2" viewBox="0 0 772 772">
  <defs>
    <style>
      .cls-1, .cls-2 {
        fill: #2563eb;
      }

      .cls-1 {
        fill-rule: evenodd;
      }
    </style>
  </defs>
  <path id="圆角矩形_15_拷贝" data-name="圆角矩形 15 拷贝" class="cls-1" d="M169.938,205.844h435a50,50,0,0,1,50,50v305a50,50,0,0,1-50,50h-435a50,50,0,0,1-50-50v-305A50,50,0,0,1,169.938,205.844ZM465,342h44a40,40,0,0,1,40,40v5a40,40,0,0,1-40,40H465a40,40,0,0,1-40-40v-5A40,40,0,0,1,465,342Zm-206,0h44a40,40,0,0,1,40,40v5a40,40,0,0,1-40,40H259a40,40,0,0,1-40-40v-5A40,40,0,0,1,259,342Z"/>
  <rect id="圆角矩形_11" data-name="圆角矩形 11" class="cls-2" x="342.75" y="541.844" width="62.781" height="138.437" rx="1.94" ry="1.94"/>
  <path id="圆角矩形_11_拷贝" data-name="圆角矩形 11 拷贝" class="cls-1" d="M496.613,564.778c12.026,12.539,13.334,30.8,2.92,40.791l-105.6,101.285c-10.415,9.989-28.607,7.922-40.634-4.617s-13.334-30.8-2.92-40.79l105.6-101.286C466.394,550.172,484.586,552.239,496.613,564.778Z"/>
  <rect id="圆角矩形_10" data-name="圆角矩形 10" class="cls-2" x="292.125" y="172.5" width="202" height="88" rx="40" ry="40"/>
  <rect id="矩形_2" data-name="矩形 2" class="cls-2" x="368.219" y="134.344" width="50.219" height="125.75"/>
  <ellipse id="椭圆_7" data-name="椭圆 7" class="cls-2" cx="393.25" cy="103.25" rx="44.312" ry="43.875"/>
  <path id="圆角矩形_14_拷贝" data-name="圆角矩形 14 拷贝" class="cls-1" d="M95.4,332.818a62.919,62.919,0,0,0-62.919,62.919v25.168A62.919,62.919,0,0,0,95.4,483.824"/>
  <path id="圆角矩形_14_拷贝_2" data-name="圆角矩形 14 拷贝 2" class="cls-1" d="M674.332,335.811c35.87,0,64.948,27.224,64.948,60.807v24.323c0,33.583-29.078,60.808-64.948,60.808"/>
</svg>
