<svg id="logo" xmlns="http://www.w3.org/2000/svg" width="202" height="80" viewBox="0 0 2020 800">
  <defs>
    <style>
      .cls-1, .cls-2 {
        fill: #2563eb;
      }

      .cls-1, .cls-3 {
        fill-rule: evenodd;
      }

      .cls-3 {
        fill: #fff;
      }
    </style>
  </defs>
  <g id="icon_拷贝" data-name="icon 拷贝">
    <path id="圆角矩形_15_拷贝" data-name="圆角矩形 15 拷贝" class="cls-1" d="M164.937,217.844h435a50,50,0,0,1,50,50v305a50,50,0,0,1-50,50h-435a50,50,0,0,1-50-50v-305A50,50,0,0,1,164.937,217.844ZM460,354h44a40,40,0,0,1,40,40v5a40,40,0,0,1-40,40H460a40,40,0,0,1-40-40v-5A40,40,0,0,1,460,354Zm-206,0h44a40,40,0,0,1,40,40v5a40,40,0,0,1-40,40H254a40,40,0,0,1-40-40v-5A40,40,0,0,1,254,354Z"/>
    <rect id="圆角矩形_11" data-name="圆角矩形 11" class="cls-2" x="337.75" y="553.844" width="62.781" height="138.437" rx="1.94" ry="1.94"/>
    <path id="圆角矩形_11_拷贝" data-name="圆角矩形 11 拷贝" class="cls-1" d="M491.613,576.778c12.026,12.539,13.334,30.8,2.92,40.791l-105.6,101.285c-10.415,9.989-28.607,7.922-40.634-4.617s-13.334-30.8-2.92-40.79l105.6-101.286C461.394,562.172,479.586,564.239,491.613,576.778Z"/>
    <rect id="圆角矩形_10" data-name="圆角矩形 10" class="cls-2" x="287.125" y="184.5" width="202" height="88" rx="40" ry="40"/>
    <rect id="矩形_2" data-name="矩形 2" class="cls-2" x="363.219" y="146.344" width="50.219" height="125.75"/>
    <ellipse id="椭圆_7" data-name="椭圆 7" class="cls-2" cx="388.25" cy="115.25" rx="44.312" ry="43.875"/>
    <path id="圆角矩形_14_拷贝" data-name="圆角矩形 14 拷贝" class="cls-1" d="M90.4,344.818a62.919,62.919,0,0,0-62.919,62.919v25.168A62.919,62.919,0,0,0,90.4,495.824"/>
    <path id="圆角矩形_14_拷贝_2" data-name="圆角矩形 14 拷贝 2" class="cls-1" d="M669.332,347.811c35.87,0,64.948,27.224,64.948,60.807v24.323c0,33.583-29.078,60.808-64.948,60.808"/>
  </g>
  <path id="_53AI" data-name="53AI" class="cls-3" d="M988.139,315.649H1133.59v-70.27H917.378l-5.9,181.818H1024.5q21.615,0,34.4,11.056t12.78,29.73q0,20.156-13.02,32.678-13.035,12.531-34.16,12.531-20.145,0-35.869-13.759t-16.216-45.7l-76.659,15.234q0.98,36.855,18.673,62.162a110.31,110.31,0,0,0,46.192,38.083q28.494,12.774,62.409,12.777,37.83,0,65.85-14.742,28-14.742,43.49-40.541,15.465-25.8,15.47-59.705,0-48.153-30.71-77.15t-85.26-28.992h-45.7Zm460.931,26.044q0-30.462-14.74-53.808t-41.28-36.609q-26.535-13.267-61.92-13.268-33.42,0-59.7,12.776a109.766,109.766,0,0,0-42.76,36.364q-16.47,23.587-20.39,56.511l74.2,14.25q2.46-27.514,15.97-40.294t33.17-12.777q20.145,0,31.94,10.32t11.8,27.518q0,15.732-11.55,25.8t-32.68,10.073h-34.4V438.5h37.84q21.615,0,33.17,10.074,11.535,10.077,11.55,26.29,0,18.185-13.27,28.992t-33.91,10.811q-21.63,0-34.64-13.513t-16.46-37.593l-76.66,14.251q3.93,31.949,20.88,55.283,16.965,23.344,44.48,36.117t61.91,12.777q36.36,0,63.88-13.514t43.25-37.592q15.72-24.07,15.72-55.037,0-23.091-10.56-40.54-10.575-17.437-30.22-27.273,35.37-20.638,35.38-66.339h0Zm268.3-96.314h-83.05L1496.73,574.617h86.98l23.09-59.951h138.58l23.09,59.951h86.49Zm-83.05,199.508,41.77-108.108,42.26,108.108h-84.03Zm354.79-199.508h-81.08V574.617h81.08V245.379Z"/>
</svg>
