<svg id="组_1_拷贝" data-name="组 1 拷贝" xmlns="http://www.w3.org/2000/svg" width="3491" height="655" viewBox="0 0 3491 655">
  <defs>
    <style>
      .cls-1, .cls-2 {
        fill: #2563eb;
      }

      .cls-1, .cls-3 {
        fill-rule: evenodd;
      }
    </style>
  </defs>
  <g id="icon_拷贝" data-name="icon 拷贝">
    <path id="圆角矩形_15_拷贝" data-name="圆角矩形 15 拷贝" class="cls-1" d="M164.938,146.844h435a50,50,0,0,1,50,50v305a50,50,0,0,1-50,50h-435a50,50,0,0,1-50-50v-305A50,50,0,0,1,164.938,146.844ZM460,283h44a40,40,0,0,1,40,40v5a40,40,0,0,1-40,40H460a40,40,0,0,1-40-40v-5A40,40,0,0,1,460,283Zm-206,0h44a40,40,0,0,1,40,40v5a40,40,0,0,1-40,40H254a40,40,0,0,1-40-40v-5A40,40,0,0,1,254,283Z"/>
    <rect id="圆角矩形_11" data-name="圆角矩形 11" class="cls-2" x="337.75" y="482.844" width="62.781" height="138.437" rx="1.94" ry="1.94"/>
    <path id="圆角矩形_11_拷贝" data-name="圆角矩形 11 拷贝" class="cls-1" d="M491.613,505.778c12.026,12.539,13.334,30.8,2.92,40.791l-105.6,101.285c-10.415,9.989-28.607,7.922-40.634-4.617s-13.334-30.8-2.92-40.79l105.6-101.286C461.394,491.172,479.586,493.239,491.613,505.778Z"/>
    <rect id="圆角矩形_10" data-name="圆角矩形 10" class="cls-2" x="287.125" y="113.5" width="202" height="88" rx="40" ry="40"/>
    <rect id="矩形_2" data-name="矩形 2" class="cls-2" x="363.219" y="75.344" width="50.219" height="125.75"/>
    <ellipse id="椭圆_7" data-name="椭圆 7" class="cls-2" cx="388.25" cy="44.25" rx="44.312" ry="43.875"/>
    <path id="圆角矩形_14_拷贝" data-name="圆角矩形 14 拷贝" class="cls-1" d="M90.4,273.818a62.919,62.919,0,0,0-62.919,62.919v25.168A62.919,62.919,0,0,0,90.4,424.824"/>
    <path id="圆角矩形_14_拷贝_2" data-name="圆角矩形 14 拷贝 2" class="cls-1" d="M669.332,276.811c35.87,0,64.948,27.224,64.948,60.807v24.323c0,33.583-29.078,60.808-64.948,60.808"/>
  </g>
  <path id="_53AI_Docs-黑字_" data-name="53AI Docs-黑字 " class="cls-3" d="M1006.87,286.858h-45.7l1.965-45.209H1108.59v-70.27H892.378l-5.9,181.818H999.5q21.115,0,34.157,11.056,13,11.057,13.02,29.73,0,20.156-13.02,32.678-13.035,12.531-34.157,12.531-22.113,0-36.855-14.742t-15.233-44.718l-76.659,15.234q0.98,35.875,18.182,61.425a107.776,107.776,0,0,0,45.946,38.575q28.747,13.014,63.145,13.022,37.336,0,65.6-14.5t43.74-40.541q15.465-26.04,15.47-59.951,0-48.648-30.95-77.395t-85.02-28.747h0Zm381.82,47.174a66.32,66.32,0,0,0,26.29-27.027q9.075-17.195,9.09-39.312,0-29.967-14.74-53.562t-41.77-36.855q-27.03-13.267-61.43-13.268-50.61,0-84.03,28.5t-38.82,77.15l74.2,14.25q1.965-26.535,15.24-39.8,13.26-13.267,33.9-13.268,19.65,0,31.7,10.32,12.03,10.319,12.04,27.518,0,16.217-11.8,26.044t-32.43,9.828h-34.4V364.5h37.84q21.12,0,32.92,9.828t11.8,26.536q0,17.69-13.27,28.747t-33.91,11.056q-21.63,0-34.64-13.268t-16.46-37.838l-76.66,14.251q5.4,47.67,40.29,75.921t86.98,28.256q35.865,0,63.64-13.514,27.75-13.509,43.49-37.592,15.72-24.071,15.72-55.037,0-23.091-10.56-40.54-10.575-17.437-30.22-27.273h0Zm354.78,166.585h86.49L1692.37,171.379h-83.05L1471.73,500.617h86.98l23.09-59.951h138.58Zm-92.38-237.838,42.26,108.108h-84.03Zm231.94,237.838h81.08V171.379h-81.08V500.617Zm431.44-329.238H2184.25V500.617h130.22q53.55,0,94.59-20.639t63.39-57.985q22.365-37.339,22.36-85.995T2472.45,250q-22.365-37.339-63.39-57.985t-94.59-20.639h0Zm-2.95,258.968h-46.19v-188.7h46.19q46.185,0,73.96,25.8,27.75,25.8,27.76,68.55t-27.76,68.55q-27.78,25.8-73.96,25.8h0Zm373.95-182.8q-37.35,0-68.55,16.462a127.652,127.652,0,0,0-49.63,45.946q-18.435,29.484-18.43,67.321t18.43,67.568a126.961,126.961,0,0,0,49.63,46.192q31.2,16.458,68.55,16.461,36.855,0,67.81-16.461a125.708,125.708,0,0,0,49.14-46.192q18.18-29.726,18.19-67.568t-18.19-67.321a126.378,126.378,0,0,0-49.14-45.946q-30.945-16.458-67.81-16.462h0Zm0,193.611a60.71,60.71,0,0,1-30.22-7.862,58.118,58.118,0,0,1-22.36-22.6q-8.355-14.742-8.35-33.416t8.35-33.169a60.47,60.47,0,0,1,22.36-22.6,59.3,59.3,0,0,1,30.22-8.109,56.236,56.236,0,0,1,28.99,8.109,61.2,61.2,0,0,1,22.12,22.6q8.34,14.5,8.35,33.169t-8.35,33.17a61.14,61.14,0,0,1-22.12,22.6,56.235,56.235,0,0,1-28.99,8.108h0Zm318.92-1.965q-26.535,0-42.75-17.2t-16.22-44.718q0-27.018,16.22-44.471,16.215-17.437,42.75-17.445,19.65,0,33.41,11.057t18.68,32.678l73.71-17.691q-10.32-42.752-45.21-68.8-34.905-26.04-80.59-26.044-36.855,0-67.57,16.708a127.98,127.98,0,0,0-48.89,46.437q-18.195,29.738-18.19,67.567,0,38.329,18.19,68.059a126.059,126.059,0,0,0,48.89,46.192q30.7,16.458,67.57,16.462a136.376,136.376,0,0,0,57-12.039,125.12,125.12,0,0,0,44.72-33.661,112.09,112.09,0,0,0,24.08-50.615l-72.24-15.724q-5.895,21.628-19.9,32.432t-33.66,10.811h0Zm251.1-18.673-76.66,15.724q5.9,35.877,37.59,53.809t78.38,17.936q50.115,0,81.08-21.622t30.96-61.425q0-28.01-17.2-47.42t-51.11-26.781l-57.98-11.794q-10.815-2.453-14.74-6.879a15.016,15.016,0,0,1-3.94-10.32q0-7.854,6.64-13.513,6.63-5.643,21.37-5.651,17.2,0,28.26,8.353t13.02,20.639l71.75-14.25q-7.38-32.433-37.1-51.6-29.745-19.166-74.94-19.165-30.96,0-55.04,10.319t-37.59,29.239q-13.53,18.923-13.52,43.98,0,29,18.68,47.174,18.66,18.186,53.07,24.57l50.12,9.828q24.57,4.423,24.57,18.182,0,8.362-8.6,14t-23.34,5.651q-17.2,0-29.24-7.125t-14.49-21.867h0Z"/>
</svg>
